<svg xmlns="http://www.w3.org/2000/svg" xmlns:xlink="http://www.w3.org/1999/xlink" width="54" height="59" viewBox="0 0 54 59"><defs><filter id="a" x="0" y="0" width="54" height="59" filterUnits="userSpaceOnUse"><feOffset dy="13" input="SourceAlpha"/><feGaussianBlur stdDeviation="3" result="b"/><feFlood flood-opacity="0.161"/><feComposite operator="in" in2="b"/><feComposite in="SourceGraphic"/></filter></defs><g transform="translate(9 0.107)"><g transform="matrix(1, 0, 0, 1, -9, -0.11)" filter="url(#a)"><g transform="translate(9)" fill="#efeff5"><path d="M 2.823160409927368 34.9754638671875 L 3.877399921417236 27.2576904296875 L 3.946599960327148 26.7511100769043 L 3.691989898681641 26.30772018432617 C 2.257980108261108 23.81045913696289 1.5 20.95706939697266 1.5 18.05603981018066 C 1.5 13.63286018371582 3.216880083084106 9.474679946899414 6.334360122680664 6.347479820251465 C 9.450599670410156 3.221529960632324 13.59350967407227 1.5 17.99992942810059 1.5 C 22.4063606262207 1.5 26.5492992401123 3.221539974212646 29.66556930541992 6.347479820251465 C 32.78310012817383 9.474690437316895 34.5 13.63286972045898 34.5 18.05603981018066 C 34.5 22.47916030883789 32.78310012817383 26.63730049133301 29.66558074951172 29.76449012756348 C 26.5492992401123 32.89043045043945 22.4063606262207 34.61196136474609 17.99992942810059 34.61196136474609 C 15.61273002624512 34.61196136474609 13.31058979034424 34.11204147338867 11.15746021270752 33.1260986328125 L 10.66909027099609 32.90246963500977 L 10.1497802734375 33.03968048095703 L 2.823160409927368 34.9754638671875 Z" stroke="none"/><path d="M 17.99992942810059 33.11196136474609 C 22.00481986999512 33.11196136474609 25.7704906463623 31.54704093933105 28.60327911376953 28.70546913146973 C 31.43855094909668 25.86141014099121 33 22.07937049865723 33 18.05603981018066 C 33 14.03264999389648 31.43855094909668 10.25057029724121 28.60326957702637 7.406499862670898 C 25.7704906463623 4.564919948577881 22.00481986999512 3 17.99992942810059 3 C 13.99505996704102 3 10.22941970825195 4.564919948577881 7.396669864654541 7.406489849090576 C 4.561439990997314 10.25055980682373 3 14.03264045715332 3 18.05603981018066 C 3 20.69536018371582 3.689090013504028 23.29044914245605 4.992780208587646 25.56077003479004 L 5.501989841461182 26.44754028320312 L 5.36359977722168 27.4607105255127 L 4.613643646240234 32.9509162902832 L 9.766610145568848 31.58943939208984 L 10.80523014068604 31.31501960754395 L 11.78197002410889 31.76227951049805 C 13.73775005340576 32.65785980224609 15.82977962493896 33.11196136474609 17.99992942810059 33.11196136474609 M 1.032680034637451 37 L 2.391200065612793 27.05467987060547 C 0.8698899745941162 24.4053897857666 0 21.33297920227051 0 18.05603981018066 C 0 8.083900451660156 8.058839797973633 0 17.99992942810059 0 C 27.94103050231934 0 36 8.083900451660156 36 18.05603981018066 C 36 28.02806091308594 27.94103050231934 36.11196136474609 17.99992942810059 36.11196136474609 C 15.33627986907959 36.11196136474609 12.80753040313721 35.53147125244141 10.53295040130615 34.48991012573242 L 1.032680034637451 37 Z" stroke="none" fill="#f6f6f6"/></g></g><path d="M0,1.737C11.341-3.65,16.317,5.213,16.317,5.213" transform="matrix(-0.946, 0.326, -0.326, -0.946, 26.844, 24.941)" fill="none" stroke="#323f54" stroke-linecap="round" stroke-width="1.5"/><g transform="translate(13.176 10.541)"><rect width="8" height="7" rx="3" transform="translate(-0.176 4.352)" fill="#323f54"/><g transform="translate(1.824 0.352)" fill="none" stroke="#323f54" stroke-width="0.5"><rect width="4" height="7" rx="2" stroke="none"/><rect x="0.25" y="0.25" width="3.5" height="6.5" rx="1.75" fill="none"/></g><g transform="translate(3.544 6.324)" fill="#f6f6f6"><path d="M 0.6700798869132996 1.286530137062073 L 0.6527742147445679 1.276438474655151 C 0.5937042236328125 1.24198842048645 0.5000042319297791 1.10718846321106 0.5000042319297791 0.8920784592628479 C 0.5000042319297791 0.6306784152984619 0.6370142102241516 0.4999984502792358 0.6693542003631592 0.4999984502792358 C 0.7014642357826233 0.4999984502792358 0.8375042080879211 0.6306784152984619 0.8375042080879211 0.8920784592628479 C 0.8375042080879211 1.100708484649658 0.7490442395210266 1.234598398208618 0.6895942091941833 1.273698449134827 L 0.6700798869132996 1.286530137062073 Z" stroke="none"/><path d="M 0.6825942397117615 2.675018548965454 C 0.5272942185401917 2.675018548965454 0.4008942246437073 2.575098514556885 0.4008942246437073 2.452298402786255 L 0.4008942246437073 1.708358407020569 C 0.1649042218923569 1.570738434791565 4.220009031996597e-06 1.257278442382812 4.220009031996597e-06 0.8920784592628479 C 4.220009031996597e-06 0.3996884524822235 0.2997642159461975 -1.559982251819747e-06 0.6693542003631592 -1.559982251819747e-06 C 1.037744164466858 -1.559982251819747e-06 1.337504267692566 0.3996884524822235 1.337504267692566 0.8920784592628479 C 1.337504267692566 1.243028402328491 1.185194253921509 1.546218395233154 0.9643042087554932 1.691468477249146 L 0.9643042087554932 2.452298402786255 C 0.9643042087554932 2.575098514556885 0.8378942012786865 2.675018548965454 0.6825942397117615 2.675018548965454 Z" stroke="none" fill="#f6f6f6"/></g></g></g></svg>