<svg xmlns="http://www.w3.org/2000/svg" xmlns:xlink="http://www.w3.org/1999/xlink" width="375" height="812" viewBox="0 0 375 812"><defs><filter id="a" x="-53" y="-62.94" width="482" height="563.13" filterUnits="userSpaceOnUse"><feOffset dy="3" input="SourceAlpha"/><feGaussianBlur stdDeviation="3" result="b"/><feFlood flood-opacity="0.161"/><feComposite operator="in" in2="b"/><feComposite in="SourceGraphic"/></filter><filter id="c" x="133" y="268" width="109" height="115" filterUnits="userSpaceOnUse"><feOffset dy="13" input="SourceAlpha"/><feGaussianBlur stdDeviation="3" result="d"/><feFlood flood-opacity="0.161"/><feComposite operator="in" in2="d"/><feComposite in="SourceGraphic"/></filter><filter id="e" x="85" y="357" width="205" height="112" filterUnits="userSpaceOnUse"><feOffset dy="11" input="SourceAlpha"/><feGaussianBlur stdDeviation="5" result="f"/><feFlood flood-opacity="0.678"/><feComposite operator="in" in2="f"/><feComposite in="SourceGraphic"/></filter></defs><g id="g" clip-path="url(#h)"><rect width="375" height="812" fill="#283346"/><g transform="matrix(1, 0, 0, 1, 0, 0)" filter="url(#a)"><path d="M232,8.134C385.612-199.5,464,114.7,464,246.162S360.13,484.19,232,484.19,0,377.621,0,246.162,78.388,215.767,232,8.134Z" transform="translate(-44 4)" fill="#283346"/></g><g transform="translate(142 267.617)"><g transform="matrix(1, 0, 0, 1, -142, -267.62)" filter="url(#c)"><g transform="translate(142 268)" fill="#efeff5"><path d="M 4.402181148529053 90.97834014892578 L 7.530453205108643 68.20645141601562 L 7.60041332244873 67.69725036621094 L 7.34337329864502 67.25216674804688 C 5.462706565856934 63.99555587768555 4.010693550109863 60.50973129272461 3.027666568756104 56.89152908325195 C 2.013973236083984 53.16051483154297 1.5 49.28886413574219 1.5 45.38411712646484 C 1.5 39.45956802368164 2.662960052490234 33.7130241394043 4.956573486328125 28.3040885925293 C 7.172373294830322 23.07867622375488 10.34485340118408 18.38541030883789 14.38589286804199 14.35464954376221 C 18.42720031738281 10.32363605499268 23.13290596008301 7.158956050872803 28.37230682373047 4.948529720306396 C 33.79621505737305 2.660249471664429 39.55874633789062 1.499996185302734 45.49982833862305 1.499996185302734 C 51.44092178344727 1.499996185302734 57.20346832275391 2.660249471664429 62.62741470336914 4.948529720306396 C 67.86685180664062 7.158956050872803 72.57260131835938 10.32363605499268 76.61394500732422 14.35464954376221 C 80.65503692626953 18.38542366027832 83.82756042480469 23.07868957519531 86.04337310791016 28.30410194396973 C 88.33702850341797 33.71303558349609 89.5 39.4595832824707 89.5 45.38411712646484 C 89.5 51.30857086181641 88.33702850341797 57.05504989624023 86.04337310791016 62.46392822265625 C 83.82756042480469 67.68929290771484 80.65503692626953 72.38253021240234 76.61394500732422 76.41327667236328 C 72.57260131835938 80.44427490234375 67.86683654785156 83.60894012451172 62.62741470336914 85.81936645507812 C 57.20346832275391 88.10763549804688 51.4409065246582 89.26789093017578 45.49982833862305 89.26789093017578 C 39.13275909423828 89.26789093017578 32.9914665222168 87.94154357910156 27.24655914306641 85.32570648193359 L 26.76042747497559 85.10435485839844 L 26.24381256103516 85.24007415771484 L 4.402181148529053 90.97834014892578 Z" stroke="none"/><path d="M 6.193990230560303 88.95670318603516 L 25.86265754699707 83.78932189941406 L 26.89590072631836 83.51786804199219 L 27.86814308166504 83.9605712890625 C 33.41654205322266 86.48692321777344 39.34870147705078 87.76789855957031 45.49982833862305 87.76789855957031 C 51.23955535888672 87.76789855957031 56.80592727661133 86.6473388671875 62.04435729980469 84.43732452392578 C 67.1051025390625 82.30229949951172 71.65061187744141 79.24529266357422 75.55464172363281 75.35124969482422 C 79.45816040039062 71.45774078369141 82.5224609375 66.92479705810547 84.66241455078125 61.87832641601562 C 86.8770751953125 56.65571212768555 88 51.10625457763672 88 45.38410949707031 C 88 39.66189575195312 86.8770751953125 34.11236572265625 84.66241455078125 28.88969612121582 C 82.52244567871094 23.84318161010742 79.45816040039062 19.31021118164062 75.55464172363281 15.41666793823242 C 71.65061187744141 11.52261066436768 67.1051025390625 8.465610504150391 62.04435729980469 6.330567836761475 C 56.80594253540039 4.120567798614502 51.23955535888672 2.999996185302734 45.49982833862305 2.999996185302734 C 39.76011276245117 2.999996185302734 34.19375610351562 4.120567798614502 28.95537185668945 6.330567836761475 C 23.8946704864502 8.465610504150391 19.34918594360352 11.52261066436768 15.44519996643066 15.41665363311768 C 11.54174327850342 19.31018257141113 8.477471351623535 23.84316825866699 6.33754301071167 28.88968276977539 C 4.12291431427002 34.11235427856445 3 39.66188049316406 3 45.38410949707031 C 3 49.15605163574219 3.496328592300415 52.89538192749023 4.475185871124268 56.49823760986328 C 5.424314498901367 59.99165344238281 6.826343059539795 63.3574104309082 8.642328262329102 66.50203704833984 L 9.156399726867676 67.3922119140625 L 9.016500473022461 68.41059875488281 L 6.193990230560303 88.95670318603516 M 2.610371351242065 93 L 6.044414520263672 68.00231170654297 C 2.198899984359741 61.34328079223633 0 53.62072372436523 0 45.38410949707031 C 0 20.31899642944336 20.37095642089844 -3.814697265625e-06 45.49982833862305 -3.814697265625e-06 C 70.62871551513672 -3.814697265625e-06 91 20.31899642944336 91 45.38410949707031 C 91 70.44889831542969 70.62871551513672 90.76789855957031 45.49982833862305 90.76789855957031 C 38.76670074462891 90.76789855957031 32.37458419799805 89.308837890625 26.62495803833008 86.69085693359375 L 2.610371351242065 93 Z" stroke="none" fill="#354258"/></g></g><path d="M0,4.4c28.707-13.635,41.3,8.8,41.3,8.8" transform="matrix(-0.946, 0.326, -0.326, -0.946, 67.946, 63.131)" fill="none" stroke="#354258" stroke-linecap="round" stroke-width="1.5"/><g transform="translate(33.351 26.681)"><g transform="translate(-0.351 10.702)" fill="#323f54" stroke="#b1b1b1" stroke-width="1"><rect width="20" height="18" rx="3" stroke="none"/><rect x="0.5" y="0.5" width="19" height="17" rx="2.5" fill="none"/></g><g transform="translate(4.649 -0.298)" fill="none" stroke="#354258" stroke-width="0.5"><rect width="11" height="18" rx="5.5" stroke="none"/><rect x="0.25" y="0.25" width="10.5" height="17.5" rx="5.25" fill="none"/></g><g transform="translate(8.972 16.006)" fill="#f6f6f6"><path d="M 1.72778046131134 6.270960807800293 C 1.605265498161316 6.270960807800293 1.532871603965759 6.219086647033691 1.514730453491211 6.195134162902832 L 1.514730453491211 4.324161052703857 L 1.514730453491211 4.03692102432251 L 1.266600489616394 3.892230987548828 C 0.8080704212188721 3.624860763549805 0.5000004172325134 2.968110799789429 0.5000004172325134 2.25800085067749 C 0.5000004172325134 1.305070877075195 1.046900391578674 0.5000008940696716 1.694260478019714 0.5000008940696716 C 2.339970350265503 0.5000008940696716 2.885480403900146 1.305070877075195 2.885480403900146 2.25800085067749 C 2.885480403900146 2.946030855178833 2.603110551834106 3.576290845870972 2.166120529174805 3.863650798797607 L 1.940840482711792 4.011800765991211 L 1.940840482711792 4.281420707702637 L 1.940840482711792 6.195126056671143 C 1.922698140144348 6.219086647033691 1.850295305252075 6.270960807800293 1.72778046131134 6.270960807800293 Z" stroke="none"/><path d="M 1.704508662223816 3.568787574768066 L 1.891400456428528 3.4458909034729 C 2.129360437393188 3.289400815963745 2.385480403900146 2.85093092918396 2.385480403900146 2.25800085067749 C 2.385480403900146 1.490070939064026 1.976090431213379 1.000000834465027 1.694260478019714 1.000000834465027 C 1.411190390586853 1.000000834465027 1.000000476837158 1.490070939064026 1.000000476837158 2.25800085067749 C 1.000000476837158 2.876340866088867 1.268760442733765 3.314690828323364 1.518460392951965 3.460300922393799 L 1.704508662223816 3.568787574768066 M 1.72778046131134 6.770960807800293 C 1.334690451622009 6.770960807800293 1.014730453491211 6.518040657043457 1.014730453491211 6.207221031188965 L 1.014730453491211 4.324161052703857 C 0.4173904359340668 3.97584080696106 4.403686659770756e-07 3.182400941848755 4.403686659770756e-07 2.25800085067749 C 4.403686659770756e-07 1.011680841445923 0.7587604522705078 8.807373319541512e-07 1.694260478019714 8.807373319541512e-07 C 2.626720428466797 8.807373319541512e-07 3.385480403900146 1.011680841445923 3.385480403900146 2.25800085067749 C 3.385480403900146 3.146340847015381 2.999940395355225 3.913760900497437 2.440840482711792 4.281420707702637 L 2.440840482711792 6.207221031188965 C 2.440840482711792 6.518040657043457 2.120880365371704 6.770960807800293 1.72778046131134 6.770960807800293 Z" stroke="none" fill="#354258"/></g></g></g><g transform="matrix(1, 0, 0, 1, 0, 0)" filter="url(#e)"><text transform="translate(188 426)" fill="#7bbe3c" font-size="67" font-family="Montserrat-ExtraBold, Montserrat" font-weight="800" letter-spacing="-0.02em"><tspan x="-86.229" y="0">Ja</tspan><tspan y="0" font-family="Montserrat-Light, Montserrat" font-weight="300">ser</tspan></text></g><text transform="translate(177 578)" fill="rgba(245,242,242,0.85)" font-size="20" font-family="Montserrat-ExtraBold, Montserrat" font-weight="800" letter-spacing="-0.02em"><tspan x="-109.05" y="0">Security </tspan><tspan y="0" font-family="Montserrat-Medium, Montserrat" font-weight="500">is in our DNA</tspan></text></g></svg>